<svg width="14" height="14" viewBox="0 0 14 14" fill="none" xmlns="http://www.w3.org/2000/svg">
<path d="M12.8933 2.07333C12.5528 1.73267 12.1485 1.46243 11.7036 1.27805C11.2586 1.09368 10.7817 0.998779 10.3 0.998779C9.81834 0.998779 9.3414 1.09368 8.89643 1.27805C8.45145 1.46243 8.04717 1.73267 7.70666 2.07333L7 2.78L6.29333 2.07333C5.60554 1.38553 4.67269 0.999136 3.7 0.999136C2.72731 0.999136 1.79446 1.38553 1.10666 2.07333C0.41887 2.76112 0.0324707 3.69397 0.0324707 4.66666C0.0324707 5.63935 0.41887 6.5722 1.10666 7.26L1.81333 7.96666L7 13.1533L12.1867 7.96666L12.8933 7.26C13.234 6.91949 13.5042 6.51521 13.6886 6.07023C13.873 5.62526 13.9679 5.14832 13.9679 4.66666C13.9679 4.185 13.873 3.70807 13.6886 3.26309C13.5042 2.81812 13.234 2.41383 12.8933 2.07333Z" fill="#2589C7"/>
</svg>
