<svg width="104" height="62" viewBox="0 0 104 62" fill="none" xmlns="http://www.w3.org/2000/svg">
<path d="M87.8 36.9H79.6C78.9 36.9 78.4 36.4 78.4 35.7V33.1V27.4C78.4 25.3 77.5 23.4 76.2 22C74.8 20.6 72.9 19.8 70.8 19.8C68.7 19.8 66.8 20.7 65.4 22C64 23.4 63.2 25.3 63.2 27.4V34.8V52.5V52.6C63.2 53.2 63 53.8 62.6 54.2C62.2 54.6 61.6 54.8 61 54.8C60.4 54.8 59.8 54.6 59.4 54.2C59 53.8 58.7 53.2 58.7 52.6V50.8V23.8V22.1C58.7 20 57.8 18.1 56.5 16.7C55.1 15.3 53.2 14.5 51.1 14.5C49 14.5 47.1 15.4 45.7 16.7C44.3 18.1 43.5 20 43.5 22.1V27.6V35.8V48.1C43.5 48.7 43.3 49.3 42.8 49.7C42.4 50.1 41.8 50.3 41.2 50.3C40.6 50.3 40 50.1 39.6 49.7C39.2 49.3 38.9 48.7 38.9 48.1V45.2V34.5C38.9 32.4 38 30.5 36.7 29.1C35.3 27.7 33.4 26.9 31.3 26.9C29.2 26.9 27.3 27.7 25.9 29.1C24.5 30.5 23.7 32.4 23.7 34.5V35.7C23.7 36.4 23.2 36.9 22.5 36.9H15.3C13.8 36.9 12.6 38.1 12.6 39.6C12.6 41.1 13.8 42.3 15.3 42.3H23.7C26.7 42.3 29.1 39.9 29.1 36.9V34.5C29.1 33.9 29.3 33.3 29.8 32.9C30.2 32.5 30.8 32.2 31.4 32.2C32 32.2 32.6 32.4 33 32.9C33.4 33.3 33.7 33.9 33.7 34.5V45.2V48.1C33.7 50.2 34.6 52.1 35.9 53.5C37.3 54.9 39.2 55.7 41.3 55.7C43.4 55.7 45.3 54.9 46.7 53.5C48.1 52.1 48.9 50.2 48.9 48.1V35.8V27.6V22.1C48.9 21.5 49.1 20.9 49.6 20.5C50 20.1 50.6 19.8 51.2 19.8C51.8 19.8 52.4 20.1 52.8 20.5C53.2 20.9 53.5 21.5 53.5 22.1V23.9V50.9V52.7C53.5 54.8 54.4 56.7 55.7 58.1C57.1 59.5 59 60.3 61.1 60.3C63.2 60.3 65.1 59.5 66.5 58.1C67.9 56.7 68.7 54.8 68.7 52.7V52.6V34.9V27.5C68.7 26.9 69 26.3 69.4 25.9C69.8 25.5 70.4 25.2 71 25.2C71.6 25.2 72.2 25.5 72.6 25.9C73 26.3 73.2 26.9 73.2 27.5V35.9V37C73.2 40 75.6 42.4 78.6 42.4H88C89.5 42.4 90.7 41.2 90.7 39.7C90.5 38.1 89.3 36.9 87.8 36.9Z" fill="url(#paint0_linear)"/>
<path d="M70.8 16.2C73.7824 16.2 76.2 13.7824 76.2 10.8C76.2 7.81768 73.7824 5.40002 70.8 5.40002C67.8177 5.40002 65.4 7.81768 65.4 10.8C65.4 13.7824 67.8177 16.2 70.8 16.2Z" fill="url(#paint1_linear)"/>
<path d="M50.8 10.8C53.7824 10.8 56.2 8.38234 56.2 5.4C56.2 2.41766 53.7824 0 50.8 0C47.8177 0 45.4 2.41766 45.4 5.4C45.4 8.38234 47.8177 10.8 50.8 10.8Z" fill="url(#paint2_linear)"/>
<path d="M31.4 23.3C34.3823 23.3 36.8 20.8823 36.8 17.9C36.8 14.9177 34.3823 12.5 31.4 12.5C28.4177 12.5 26 14.9177 26 17.9C26 20.8823 28.4177 23.3 31.4 23.3Z" fill="url(#paint3_linear)"/>
<path d="M5.9 29.3C6.3 28.2 6.6 26.8 6.6 25.2V19C6.6 17.7 6.8 16.7 7.3 16.1C7.8 15.5 8.7 15.2 10.1 15.2H15.7V9.59998H10.3C8.3 9.59998 6.7 9.79997 5.4 10.2C4.1 10.6 3 11.1 2.2 11.8C1.4 12.5 0.8 13.4 0.5 14.4C0.2 15.4 0 16.6 0 18V46.5C0 47.8 0.2 49 0.5 50.1C0.8 51.1 1.4 52 2.2 52.7C3 53.4 4.1 54 5.4 54.3C6.7 54.7 8.4 54.9 10.3 54.9H15.7V49.3H10.1C8.7 49.3 7.8 49 7.3 48.4C6.8 47.8 6.6 46.8 6.6 45.5V39.3C6.6 37.7 6.4 36.3 5.9 35.2C5.5 34.1 4.6 33.1 3.3 32.3C4.6 31.4 5.5 30.4 5.9 29.3Z" fill="#14405B"/>
<path d="M103.2 18C103.2 16.7 103 15.5 102.7 14.4C102.4 13.4 101.8 12.5 101 11.8C100.2 11.1 99.1 10.5 97.8 10.2C96.5 9.79997 94.8 9.59998 92.9 9.59998H92H87.5V15.2H92H93.2C94.6 15.2 95.5 15.5 96 16.1C96.5 16.7 96.7 17.7 96.7 19V25.2C96.7 26.8 96.9 28.2 97.4 29.3C97.8 30.4 98.7 31.4 100 32.2C98.7 33 97.8 34 97.4 35.1C97 36.2 96.7 37.6 96.7 39.2V45.4C96.7 46.7 96.5 47.7 96 48.3C95.5 48.9 94.6 49.2 93.2 49.2H87.5V54.8C87.5 58.4 86.6 60.6 83.9 62C83.9 62 91.8 60.4 93.3 54.8C95.1 54.8 96.6 54.6 97.8 54.2C99.1 53.8 100.2 53.3 101 52.6C101.8 51.9 102.4 51 102.7 50C103 49 103.2 47.8 103.2 46.4V18Z" fill="#14405B"/>
<defs>
<linearGradient id="paint0_linear" x1="12.7094" y1="37.3571" x2="90.5094" y2="37.3571" gradientUnits="userSpaceOnUse">
<stop stop-color="#1B75BB"/>
<stop offset="1" stop-color="#00ADEE"/>
</linearGradient>
<linearGradient id="paint1_linear" x1="4.69216" y1="10.7841" x2="100.657" y2="10.7841" gradientUnits="userSpaceOnUse">
<stop stop-color="#1B75BB"/>
<stop offset="1" stop-color="#00ADEE"/>
</linearGradient>
<linearGradient id="paint2_linear" x1="4.69227" y1="5.4306" x2="100.657" y2="5.4306" gradientUnits="userSpaceOnUse">
<stop stop-color="#1B75BB"/>
<stop offset="1" stop-color="#00ADEE"/>
</linearGradient>
<linearGradient id="paint3_linear" x1="4.69219" y1="17.8527" x2="100.657" y2="17.8527" gradientUnits="userSpaceOnUse">
<stop stop-color="#1B75BB"/>
<stop offset="1" stop-color="#00ADEE"/>
</linearGradient>
</defs>
</svg>
