<svg width="279" height="62" viewBox="0 0 279 62" fill="none" xmlns="http://www.w3.org/2000/svg">
<path d="M87.8 36.9H79.6C78.9 36.9 78.4 36.4 78.4 35.7V33.1V27.4C78.4 25.3 77.5 23.4 76.2 22C74.8 20.6 72.9 19.8 70.8 19.8C68.7 19.8 66.8 20.7 65.4 22C64 23.4 63.2 25.3 63.2 27.4V34.8V52.5V52.6C63.2 53.2 63 53.8 62.6 54.2C62.2 54.6 61.6 54.8 61 54.8C60.4 54.8 59.8 54.6 59.4 54.2C59 53.8 58.7 53.2 58.7 52.6V50.8V23.8V22.1C58.7 20 57.8 18.1 56.5 16.7C55.1 15.3 53.2 14.5 51.1 14.5C49 14.5 47.1 15.4 45.7 16.7C44.3 18.1 43.5 20 43.5 22.1V27.6V35.8V48.1C43.5 48.7 43.3 49.3 42.8 49.7C42.4 50.1 41.8 50.3 41.2 50.3C40.6 50.3 40 50.1 39.6 49.7C39.2 49.3 38.9 48.7 38.9 48.1V45.2V34.5C38.9 32.4 38 30.5 36.7 29.1C35.3 27.7 33.4 26.9 31.3 26.9C29.2 26.9 27.3 27.7 25.9 29.1C24.5 30.5 23.7 32.4 23.7 34.5V35.7C23.7 36.4 23.2 36.9 22.5 36.9H15.3C13.8 36.9 12.6 38.1 12.6 39.6C12.6 41.1 13.8 42.3 15.3 42.3H23.7C26.7 42.3 29.1 39.9 29.1 36.9V34.5C29.1 33.9 29.3 33.3 29.8 32.9C30.2 32.5 30.8 32.2 31.4 32.2C32 32.2 32.6 32.4 33 32.9C33.4 33.3 33.7 33.9 33.7 34.5V45.2V48.1C33.7 50.2 34.6 52.1 35.9 53.5C37.3 54.9 39.2 55.7 41.3 55.7C43.4 55.7 45.3 54.9 46.7 53.5C48.1 52.1 48.9 50.2 48.9 48.1V35.8V27.6V22.1C48.9 21.5 49.1 20.9 49.6 20.5C50 20.1 50.6 19.8 51.2 19.8C51.8 19.8 52.4 20.1 52.8 20.5C53.2 20.9 53.5 21.5 53.5 22.1V23.9V50.9V52.7C53.5 54.8 54.4 56.7 55.7 58.1C57.1 59.5 59 60.3 61.1 60.3C63.2 60.3 65.1 59.5 66.5 58.1C67.9 56.7 68.7 54.8 68.7 52.7V52.6V34.9V27.5C68.7 26.9 69 26.3 69.4 25.9C69.8 25.5 70.4 25.2 71 25.2C71.6 25.2 72.2 25.5 72.6 25.9C73 26.3 73.2 26.9 73.2 27.5V35.9V37C73.2 40 75.6 42.4 78.6 42.4H88C89.5 42.4 90.7 41.2 90.7 39.7C90.5 38.1 89.3 36.9 87.8 36.9Z" fill="url(#paint0_linear)"/>
<path d="M70.8 16.2C73.7824 16.2 76.2 13.7824 76.2 10.8C76.2 7.81768 73.7824 5.40002 70.8 5.40002C67.8177 5.40002 65.4 7.81768 65.4 10.8C65.4 13.7824 67.8177 16.2 70.8 16.2Z" fill="url(#paint1_linear)"/>
<path d="M50.8 10.8C53.7824 10.8 56.2 8.38234 56.2 5.4C56.2 2.41766 53.7824 0 50.8 0C47.8177 0 45.4 2.41766 45.4 5.4C45.4 8.38234 47.8177 10.8 50.8 10.8Z" fill="url(#paint2_linear)"/>
<path d="M31.4 23.3C34.3823 23.3 36.8 20.8823 36.8 17.9C36.8 14.9177 34.3823 12.5 31.4 12.5C28.4177 12.5 26 14.9177 26 17.9C26 20.8823 28.4177 23.3 31.4 23.3Z" fill="url(#paint3_linear)"/>
<path d="M5.9 29.3C6.3 28.2 6.6 26.8 6.6 25.2V19C6.6 17.7 6.8 16.7 7.3 16.1C7.8 15.5 8.7 15.2 10.1 15.2H15.7V9.59998H10.3C8.3 9.59998 6.7 9.79997 5.4 10.2C4.1 10.6 3 11.1 2.2 11.8C1.4 12.5 0.8 13.4 0.5 14.4C0.2 15.4 0 16.6 0 18V46.5C0 47.8 0.2 49 0.5 50.1C0.8 51.1 1.4 52 2.2 52.7C3 53.4 4.1 54 5.4 54.3C6.7 54.7 8.4 54.9 10.3 54.9H15.7V49.3H10.1C8.7 49.3 7.8 49 7.3 48.4C6.8 47.8 6.6 46.8 6.6 45.5V39.3C6.6 37.7 6.4 36.3 5.9 35.2C5.5 34.1 4.6 33.1 3.3 32.3C4.6 31.4 5.5 30.4 5.9 29.3Z" fill="#14405B"/>
<path d="M103.2 18C103.2 16.7 103 15.5 102.7 14.4C102.4 13.4 101.8 12.5 101 11.8C100.2 11.1 99.1 10.5 97.8 10.2C96.5 9.79997 94.8 9.59998 92.9 9.59998H92H87.5V15.2H92H93.2C94.6 15.2 95.5 15.5 96 16.1C96.5 16.7 96.7 17.7 96.7 19V25.2C96.7 26.8 96.9 28.2 97.4 29.3C97.8 30.4 98.7 31.4 100 32.2C98.7 33 97.8 34 97.4 35.1C97 36.2 96.7 37.6 96.7 39.2V45.4C96.7 46.7 96.5 47.7 96 48.3C95.5 48.9 94.6 49.2 93.2 49.2H87.5V54.8C87.5 58.4 86.6 60.6 83.9 62C83.9 62 91.8 60.4 93.3 54.8C95.1 54.8 96.6 54.6 97.8 54.2C99.1 53.8 100.2 53.3 101 52.6C101.8 51.9 102.4 51 102.7 50C103 49 103.2 47.8 103.2 46.4V18Z" fill="#14405B"/>
<path d="M134.634 35.9482C134.446 38.5492 133.483 40.5967 131.745 42.0908C130.019 43.585 127.739 44.332 124.905 44.332C121.806 44.332 119.366 43.2917 117.584 41.2109C115.813 39.1191 114.928 36.2526 114.928 32.6113V31.1338C114.928 28.8096 115.337 26.762 116.156 24.9912C116.975 23.2204 118.143 21.8646 119.659 20.9238C121.187 19.972 122.957 19.4961 124.972 19.4961C127.761 19.4961 130.007 20.2432 131.712 21.7373C133.416 23.2314 134.401 25.3288 134.667 28.0293H129.687C129.565 26.4688 129.128 25.3398 128.375 24.6426C127.633 23.9342 126.499 23.5801 124.972 23.5801C123.312 23.5801 122.066 24.1777 121.236 25.373C120.417 26.5573 119.997 28.4001 119.975 30.9014V32.7275C119.975 35.3395 120.368 37.2487 121.153 38.4551C121.95 39.6615 123.201 40.2646 124.905 40.2646C126.444 40.2646 127.589 39.916 128.342 39.2188C129.105 38.5104 129.543 37.4202 129.653 35.9482H134.634ZM141.081 27.9961C142.353 26.4688 143.953 25.7051 145.878 25.7051C149.774 25.7051 151.75 27.9684 151.805 32.4951V44H147.007V32.6279C147.007 31.5986 146.786 30.8405 146.343 30.3535C145.9 29.8555 145.164 29.6064 144.135 29.6064C142.73 29.6064 141.711 30.1488 141.081 31.2334V44H136.283V18.5H141.081V27.9961ZM162.502 44.332C159.868 44.332 157.721 43.5241 156.06 41.9082C154.411 40.2923 153.587 38.1396 153.587 35.4502V34.9854C153.587 33.1813 153.935 31.571 154.633 30.1543C155.33 28.7266 156.315 27.6309 157.588 26.8672C158.872 26.0924 160.333 25.7051 161.971 25.7051C164.428 25.7051 166.359 26.4798 167.765 28.0293C169.181 29.5788 169.89 31.7757 169.89 34.6201V36.5791H158.451C158.606 37.7523 159.071 38.693 159.846 39.4014C160.631 40.1097 161.622 40.4639 162.817 40.4639C164.666 40.4639 166.11 39.7943 167.15 38.4551L169.508 41.0947C168.788 42.113 167.814 42.9098 166.586 43.4854C165.357 44.0498 163.996 44.332 162.502 44.332ZM161.954 29.5898C161.002 29.5898 160.227 29.9108 159.63 30.5527C159.043 31.1947 158.667 32.1133 158.501 33.3086H165.175V32.9268C165.153 31.8643 164.865 31.0452 164.311 30.4697C163.758 29.8831 162.972 29.5898 161.954 29.5898ZM178.909 40.4639C179.795 40.4639 180.514 40.2204 181.068 39.7334C181.621 39.2464 181.909 38.599 181.931 37.791H186.43C186.419 39.0085 186.087 40.1263 185.434 41.1445C184.781 42.1517 183.884 42.9375 182.744 43.502C181.616 44.0553 180.365 44.332 178.993 44.332C176.425 44.332 174.399 43.5186 172.916 41.8916C171.433 40.2536 170.692 37.9958 170.692 35.1182V34.8027C170.692 32.0358 171.428 29.8278 172.9 28.1787C174.372 26.5296 176.392 25.7051 178.959 25.7051C181.206 25.7051 183.005 26.347 184.355 27.6309C185.716 28.9036 186.408 30.6025 186.43 32.7275H181.931C181.909 31.7979 181.621 31.0452 181.068 30.4697C180.514 29.8831 179.784 29.5898 178.876 29.5898C177.758 29.5898 176.912 29.9993 176.336 30.8184C175.772 31.6263 175.49 32.9434 175.49 34.7695V35.2676C175.49 37.1159 175.772 38.444 176.336 39.252C176.901 40.0599 177.758 40.4639 178.909 40.4639ZM194.504 36.7949L192.777 38.5215V44H187.979V18.5H192.777V32.6279L193.707 31.4326L198.305 26.0371H204.066L197.575 33.5244L204.631 44H199.119L194.504 36.7949Z" fill="#14405B"/>
<path d="M209.652 26.0371L209.801 28.0459C211.074 26.4854 212.795 25.7051 214.965 25.7051C217.278 25.7051 218.866 26.6182 219.729 28.4443C220.991 26.6182 222.789 25.7051 225.125 25.7051C227.073 25.7051 228.522 26.2751 229.474 27.415C230.426 28.5439 230.902 30.2484 230.902 32.5283V44H226.088V32.5449C226.088 31.5267 225.888 30.7852 225.49 30.3203C225.091 29.8444 224.389 29.6064 223.382 29.6064C221.943 29.6064 220.947 30.2926 220.393 31.665L220.41 44H215.612V32.5615C215.612 31.5212 215.407 30.7686 214.998 30.3037C214.588 29.8389 213.891 29.6064 212.906 29.6064C211.545 29.6064 210.56 30.1709 209.951 31.2998V44H205.153V26.0371H209.652ZM243.823 44C243.602 43.5684 243.442 43.0316 243.342 42.3896C242.18 43.6846 240.669 44.332 238.81 44.332C237.05 44.332 235.589 43.8229 234.427 42.8047C233.276 41.7865 232.7 40.5026 232.7 38.9531C232.7 37.0495 233.403 35.5885 234.809 34.5703C236.225 33.5521 238.267 33.0374 240.935 33.0264H243.143V31.9971C243.143 31.167 242.927 30.5029 242.495 30.0049C242.075 29.5068 241.405 29.2578 240.486 29.2578C239.679 29.2578 239.042 29.4515 238.577 29.8389C238.123 30.2262 237.897 30.7575 237.897 31.4326H233.099C233.099 30.3923 233.42 29.4294 234.062 28.5439C234.704 27.6585 235.611 26.9668 236.784 26.4688C237.957 25.9596 239.275 25.7051 240.735 25.7051C242.949 25.7051 244.703 26.264 245.998 27.3818C247.304 28.4886 247.957 30.0492 247.957 32.0635V39.8496C247.968 41.554 248.206 42.8434 248.671 43.7178V44H243.823ZM239.856 40.6631C240.564 40.6631 241.217 40.5081 241.815 40.1982C242.412 39.8773 242.855 39.4512 243.143 38.9199V35.832H241.35C238.948 35.832 237.67 36.6621 237.515 38.3223L237.498 38.6045C237.498 39.2021 237.708 39.6947 238.129 40.082C238.55 40.4694 239.125 40.6631 239.856 40.6631ZM260.546 30.5361C259.893 30.4476 259.318 30.4033 258.82 30.4033C257.005 30.4033 255.815 31.0176 255.251 32.2461V44H250.453V26.0371H254.985L255.118 28.1787C256.081 26.5296 257.414 25.7051 259.119 25.7051C259.65 25.7051 260.148 25.777 260.613 25.9209L260.546 30.5361ZM268.205 36.7949L266.479 38.5215V44H261.681V18.5H266.479V32.6279L267.408 31.4326L272.007 26.0371H277.768L271.276 33.5244L278.332 44H272.82L268.205 36.7949Z" fill="#C4C4C4"/>
<path d="M209.652 26.0371L209.801 28.0459C211.074 26.4854 212.795 25.7051 214.965 25.7051C217.278 25.7051 218.866 26.6182 219.729 28.4443C220.991 26.6182 222.789 25.7051 225.125 25.7051C227.073 25.7051 228.522 26.2751 229.474 27.415C230.426 28.5439 230.902 30.2484 230.902 32.5283V44H226.088V32.5449C226.088 31.5267 225.888 30.7852 225.49 30.3203C225.091 29.8444 224.389 29.6064 223.382 29.6064C221.943 29.6064 220.947 30.2926 220.393 31.665L220.41 44H215.612V32.5615C215.612 31.5212 215.407 30.7686 214.998 30.3037C214.588 29.8389 213.891 29.6064 212.906 29.6064C211.545 29.6064 210.56 30.1709 209.951 31.2998V44H205.153V26.0371H209.652ZM243.823 44C243.602 43.5684 243.442 43.0316 243.342 42.3896C242.18 43.6846 240.669 44.332 238.81 44.332C237.05 44.332 235.589 43.8229 234.427 42.8047C233.276 41.7865 232.7 40.5026 232.7 38.9531C232.7 37.0495 233.403 35.5885 234.809 34.5703C236.225 33.5521 238.267 33.0374 240.935 33.0264H243.143V31.9971C243.143 31.167 242.927 30.5029 242.495 30.0049C242.075 29.5068 241.405 29.2578 240.486 29.2578C239.679 29.2578 239.042 29.4515 238.577 29.8389C238.123 30.2262 237.897 30.7575 237.897 31.4326H233.099C233.099 30.3923 233.42 29.4294 234.062 28.5439C234.704 27.6585 235.611 26.9668 236.784 26.4688C237.957 25.9596 239.275 25.7051 240.735 25.7051C242.949 25.7051 244.703 26.264 245.998 27.3818C247.304 28.4886 247.957 30.0492 247.957 32.0635V39.8496C247.968 41.554 248.206 42.8434 248.671 43.7178V44H243.823ZM239.856 40.6631C240.564 40.6631 241.217 40.5081 241.815 40.1982C242.412 39.8773 242.855 39.4512 243.143 38.9199V35.832H241.35C238.948 35.832 237.67 36.6621 237.515 38.3223L237.498 38.6045C237.498 39.2021 237.708 39.6947 238.129 40.082C238.55 40.4694 239.125 40.6631 239.856 40.6631ZM260.546 30.5361C259.893 30.4476 259.318 30.4033 258.82 30.4033C257.005 30.4033 255.815 31.0176 255.251 32.2461V44H250.453V26.0371H254.985L255.118 28.1787C256.081 26.5296 257.414 25.7051 259.119 25.7051C259.65 25.7051 260.148 25.777 260.613 25.9209L260.546 30.5361ZM268.205 36.7949L266.479 38.5215V44H261.681V18.5H266.479V32.6279L267.408 31.4326L272.007 26.0371H277.768L271.276 33.5244L278.332 44H272.82L268.205 36.7949Z" fill="url(#paint4_linear)"/>
<defs>
<linearGradient id="paint0_linear" x1="12.7094" y1="37.3571" x2="90.5094" y2="37.3571" gradientUnits="userSpaceOnUse">
<stop stop-color="#1B75BB"/>
<stop offset="1" stop-color="#00ADEE"/>
</linearGradient>
<linearGradient id="paint1_linear" x1="4.69211" y1="10.7841" x2="100.657" y2="10.7841" gradientUnits="userSpaceOnUse">
<stop stop-color="#1B75BB"/>
<stop offset="1" stop-color="#00ADEE"/>
</linearGradient>
<linearGradient id="paint2_linear" x1="4.69224" y1="5.4306" x2="100.657" y2="5.4306" gradientUnits="userSpaceOnUse">
<stop stop-color="#1B75BB"/>
<stop offset="1" stop-color="#00ADEE"/>
</linearGradient>
<linearGradient id="paint3_linear" x1="4.69219" y1="17.8527" x2="100.657" y2="17.8527" gradientUnits="userSpaceOnUse">
<stop stop-color="#1B75BB"/>
<stop offset="1" stop-color="#00ADEE"/>
</linearGradient>
<linearGradient id="paint4_linear" x1="278" y1="52" x2="203" y2="52" gradientUnits="userSpaceOnUse">
<stop stop-color="#1A79BF"/>
<stop offset="1" stop-color="#01ADEE"/>
</linearGradient>
</defs>
</svg>
