<svg width="230" height="50" viewBox="0 0 230 50" fill="none" xmlns="http://www.w3.org/2000/svg">
<path d="M107.026 29.1323C106.865 31.3507 106.044 33.0972 104.562 34.3716C103.089 35.646 101.145 36.2832 98.728 36.2832C96.0848 36.2832 94.0033 35.3958 92.4834 33.6211C90.973 31.8369 90.2178 29.3919 90.2178 26.2861V25.0259C90.2178 23.0435 90.5671 21.297 91.2656 19.7866C91.9642 18.2762 92.9601 17.1198 94.2534 16.3174C95.5562 15.5055 97.0666 15.0996 98.7847 15.0996C101.164 15.0996 103.08 15.7368 104.534 17.0112C105.987 18.2856 106.828 20.0745 107.054 22.3779H102.806C102.702 21.0469 102.329 20.084 101.688 19.4893C101.055 18.8851 100.087 18.583 98.7847 18.583C97.3687 18.583 96.3066 19.0928 95.5986 20.1123C94.9001 21.1224 94.5413 22.6942 94.5225 24.8276V26.3853C94.5225 28.6131 94.8576 30.2415 95.5278 31.2705C96.2075 32.2995 97.2743 32.814 98.728 32.814C100.04 32.814 101.017 32.5166 101.659 31.9219C102.311 31.3177 102.683 30.3879 102.778 29.1323H107.026ZM112.525 22.3496C113.61 21.0469 114.974 20.3955 116.617 20.3955C119.94 20.3955 121.625 22.326 121.672 26.187V36H117.58V26.3003C117.58 25.4224 117.391 24.7757 117.013 24.3604C116.636 23.9355 116.008 23.7231 115.13 23.7231C113.931 23.7231 113.063 24.1857 112.525 25.1108V36H108.432V14.25H112.525V22.3496ZM130.796 36.2832C128.549 36.2832 126.718 35.5941 125.302 34.2158C123.895 32.8376 123.192 31.0015 123.192 28.7075V28.311C123.192 26.7723 123.489 25.3988 124.084 24.1904C124.678 22.9727 125.519 22.0381 126.604 21.3867C127.699 20.7259 128.945 20.3955 130.343 20.3955C132.438 20.3955 134.086 21.0563 135.284 22.3779C136.493 23.6995 137.097 25.5734 137.097 27.9995V29.6704H127.341C127.473 30.6711 127.869 31.4735 128.53 32.0776C129.2 32.6818 130.045 32.9839 131.065 32.9839C132.641 32.9839 133.873 32.4128 134.761 31.2705L136.771 33.522C136.158 34.3905 135.327 35.0701 134.279 35.561C133.231 36.0425 132.07 36.2832 130.796 36.2832ZM130.328 23.709C129.517 23.709 128.856 23.9827 128.346 24.5303C127.846 25.0778 127.525 25.8613 127.383 26.8809H133.075V26.5552C133.057 25.6489 132.811 24.9504 132.339 24.4595C131.867 23.9591 131.197 23.709 130.328 23.709ZM144.79 32.9839C145.546 32.9839 146.159 32.7762 146.631 32.3608C147.103 31.9455 147.349 31.3932 147.368 30.7041H151.205C151.196 31.7425 150.912 32.696 150.355 33.5645C149.798 34.4235 149.034 35.0938 148.061 35.5752C147.099 36.0472 146.032 36.2832 144.861 36.2832C142.671 36.2832 140.944 35.5894 139.679 34.2017C138.414 32.8045 137.781 30.8787 137.781 28.4243V28.1553C137.781 25.7952 138.409 23.9119 139.664 22.5054C140.92 21.0988 142.643 20.3955 144.833 20.3955C146.749 20.3955 148.283 20.943 149.435 22.0381C150.596 23.1237 151.186 24.5728 151.205 26.3853H147.368C147.349 25.5923 147.103 24.9504 146.631 24.4595C146.159 23.9591 145.536 23.709 144.762 23.709C143.809 23.709 143.087 24.0583 142.596 24.7568C142.114 25.446 141.873 26.5693 141.873 28.127V28.5518C141.873 30.1283 142.114 31.2611 142.596 31.9502C143.077 32.6393 143.809 32.9839 144.79 32.9839ZM158.091 29.8545L156.619 31.3271V36H152.526V14.25H156.619V26.3003L157.412 25.2808L161.334 20.6787H166.248L160.711 27.0649L166.729 36H162.028L158.091 29.8545Z" fill="#14405B"/>
<path d="M170.84 20.6787L170.967 22.3921C172.053 21.061 173.521 20.3955 175.371 20.3955C177.344 20.3955 178.699 21.1743 179.435 22.7319C180.511 21.1743 182.045 20.3955 184.037 20.3955C185.699 20.3955 186.935 20.8817 187.747 21.854C188.559 22.8169 188.965 24.2707 188.965 26.2153V36H184.859V26.2295C184.859 25.361 184.689 24.7285 184.349 24.332C184.009 23.9261 183.41 23.7231 182.55 23.7231C181.323 23.7231 180.474 24.3084 180.002 25.479L180.016 36H175.924V26.2437C175.924 25.3563 175.749 24.7144 175.4 24.3179C175.05 23.9214 174.456 23.7231 173.615 23.7231C172.454 23.7231 171.614 24.2046 171.095 25.1675V36H167.003V20.6787H170.84ZM199.986 36C199.797 35.6318 199.66 35.174 199.576 34.6265C198.584 35.731 197.296 36.2832 195.71 36.2832C194.209 36.2832 192.963 35.849 191.972 34.9805C190.99 34.112 190.499 33.0169 190.499 31.6953C190.499 30.0716 191.098 28.8255 192.297 27.957C193.506 27.0885 195.247 26.6496 197.522 26.6401H199.406V25.7622C199.406 25.0542 199.222 24.4878 198.853 24.063C198.495 23.6382 197.924 23.4258 197.14 23.4258C196.451 23.4258 195.908 23.591 195.512 23.9214C195.125 24.2518 194.931 24.7049 194.931 25.2808H190.839C190.839 24.3934 191.112 23.5721 191.66 22.8169C192.208 22.0617 192.982 21.4717 193.982 21.0469C194.983 20.6126 196.106 20.3955 197.352 20.3955C199.24 20.3955 200.737 20.8722 201.841 21.8257C202.955 22.7697 203.512 24.1007 203.512 25.8188V32.46C203.521 33.9137 203.724 35.0135 204.121 35.7593V36H199.986ZM196.602 33.1538C197.206 33.1538 197.763 33.0216 198.273 32.7573C198.783 32.4836 199.16 32.1201 199.406 31.667V29.0332H197.876C195.828 29.0332 194.737 29.7412 194.605 31.1572L194.591 31.3979C194.591 31.9077 194.771 32.3278 195.129 32.6582C195.488 32.9886 195.979 33.1538 196.602 33.1538ZM214.25 24.5161C213.693 24.4406 213.202 24.4028 212.777 24.4028C211.229 24.4028 210.214 24.9268 209.733 25.9746V36H205.641V20.6787H209.506L209.62 22.5054C210.441 21.0988 211.578 20.3955 213.032 20.3955C213.485 20.3955 213.91 20.4569 214.307 20.5796L214.25 24.5161ZM220.782 29.8545L219.31 31.3271V36H215.217V14.25H219.31V26.3003L220.103 25.2808L224.025 20.6787H228.939L223.402 27.0649L229.42 36H224.719L220.782 29.8545Z" fill="#2589C7"/>
<path d="M9.78729 31.5839H14.9254C16.2854 31.4328 19.0056 30.4052 19.0056 27.5037C19.0056 24.6022 21.625 23.6754 22.9347 23.5746C24.2444 23.7257 26.8638 24.7231 26.8638 27.5037C26.8638 30.2843 26.8638 35.8153 26.8638 38.2332C26.8134 39.3414 27.4078 41.5578 30.1884 41.5578C32.969 41.5578 33.5634 39.3414 33.513 38.2332V17.3787C33.7145 16.069 34.7824 13.4496 37.4421 13.4496C40.7668 13.4496 41.3712 16.7742 41.3712 17.3787C41.3712 17.8623 41.3712 33.6996 41.3712 41.5578C41.4216 42.9683 42.3384 45.7892 45.6026 45.7892C49.6828 45.7892 49.8339 42.4645 49.8339 41.5578C49.8339 40.8325 49.8339 27.2519 49.8339 20.5522C50.1865 19.4944 51.3149 17.3787 53.0074 17.3787C55.1231 17.3787 57.541 18.7388 57.541 21.9123C57.541 24.4511 57.541 27.9067 57.541 29.3172C57.7425 30.2742 58.5989 32.1884 60.4123 32.1884C62.2257 32.1884 65.7015 32.1884 67.2127 32.1884" stroke="#2589C7" stroke-width="4.83582" stroke-linejoin="round"/>
<circle cx="22.6325" cy="14.5075" r="4.53358" fill="#2589C7"/>
<circle cx="37.7444" cy="4.53358" r="4.53358" fill="#2589C7"/>
<circle cx="53.7631" cy="8.76494" r="4.53358" fill="#2589C7"/>
<path d="M64.2668 8.16046V12.5429H70.4627C71.6716 12.5429 71.7724 13.3489 71.6716 13.7519V23.1213L74.5429 25.9925L71.6716 28.8638V37.3265C71.6716 39.1399 70.2612 39.4925 69.556 39.4422H64.2668C64.2668 46.847 64.2668 46.5448 62 49.4161C67.5612 48.328 68.6493 44.9328 68.4981 43.3713H70.916C74.5429 43.3713 76.1549 39.6437 76.5075 37.7799V13.7519C76.5075 10.0041 72.7799 8.4627 70.916 8.16046H64.2668Z" fill="#14405B"/>
<path d="M5.28918 8.16046H12.3918V12.694H7.10261C5.53097 12.694 5.23881 13.903 5.28918 14.5075V23.4235L2.26679 26.4459L5.28918 29.4683V37.3265C5.28918 38.7773 6.49813 39.1399 7.10261 39.1399H12.3918V43.3713H4.53358C1.3903 43.3713 0.201493 40.3489 0 38.8377V13.4496C0 9.82277 3.52612 8.41233 5.28918 8.16046Z" fill="#14405B"/>
</svg>
