<svg width="274" height="63" viewBox="0 0 274 63" fill="none" xmlns="http://www.w3.org/2000/svg">
<path d="M122.2 46.5C120.6 46.5 119.3 46.3 118.2 45.9C117.1 45.5 116.2 44.8 115.6 44C115 43.2 114.5 42.2 114.2 41.1C113.9 40 113.8 38.7 113.8 37.2V27.3C113.8 25.8 113.9 24.5 114.2 23.4C114.5 22.3 114.9 21.3 115.6 20.5C116.2 19.7 117.1 19 118.2 18.6C119.3 18.2 120.6 18 122.2 18C123.7 18 125 18.2 126 18.6C127.1 19 127.9 19.5 128.5 20.3C129.1 21 129.5 21.9 129.8 22.8C130.1 23.7 130.2 24.8 130.2 26.1V28.6H124.2V25.8C124.2 25.4 124.2 25 124.2 24.8C124.2 24.6 124.1 24.3 124.1 23.9C124 23.5 123.9 23.3 123.8 23.1C123.7 22.9 123.5 22.8 123.2 22.6C122.9 22.5 122.6 22.4 122.2 22.4C121.8 22.4 121.5 22.5 121.2 22.6C120.9 22.7 120.7 22.9 120.6 23.1C120.5 23.3 120.3 23.6 120.3 23.9C120.2 24.2 120.2 24.6 120.1 24.8C120.1 25.1 120.1 25.4 120.1 25.8V38.8C120.1 39.9 120.2 40.8 120.5 41.4C120.8 42 121.3 42.3 122.2 42.3C122.6 42.3 122.9 42.2 123.2 42.1C123.5 42 123.7 41.8 123.8 41.6C123.9 41.4 124 41.1 124.1 40.8C124.2 40.5 124.2 40.1 124.2 39.9C124.2 39.6 124.2 39.3 124.2 38.9V36H130.2V38.4C130.2 39.4 130.1 40.3 130 41.1C129.8 41.9 129.6 42.7 129.2 43.4C128.8 44.1 128.3 44.7 127.7 45.2C127.1 45.7 126.3 46.1 125.4 46.3C124.5 46.4 123.4 46.5 122.2 46.5Z" fill="url(#paint0_linear)"/>
<path d="M133.3 46.0999V18.2H138.9V28C140.3 26.6 141.9 25.8999 143.8 25.8999C145 25.8999 145.9 26.3 146.5 27.2C147.1 28.1 147.4 29.2 147.4 30.5V46.0999H141.8V31.3C141.8 30.8 141.7 30.4 141.6 30.2C141.4 30 141.2 29.7999 140.7 29.8999C140.2 29.8999 139.6 30.0999 138.9 30.5999V46.0999H133.3Z" fill="url(#paint1_linear)"/>
<path d="M157.3 46.4999C155.1 46.4999 153.4 45.8999 152.2 44.6999C151 43.4999 150.4 41.8999 150.4 39.6999V32.5999C150.4 30.4999 151 28.7999 152.2 27.5999C153.4 26.3999 155.1 25.7999 157.3 25.7999C159.5 25.7999 161.2 26.3999 162.3 27.4999C163.4 28.5999 164 30.2999 164 32.4999V36.3999H156V39.8999C156 40.6999 156.1 41.2999 156.3 41.6999C156.5 42.0999 156.8 42.2999 157.3 42.2999C158.2 42.2999 158.7 41.6999 158.7 40.3999V39.0999H163.9V40.2999C163.9 42.2999 163.3 43.7999 162.2 44.7999C161.1 45.7999 159.4 46.4999 157.3 46.4999ZM156 33.8999H158.7V31.8999C158.7 31.1999 158.6 30.5999 158.3 30.2999C158.1 29.9999 157.7 29.7999 157.2 29.7999C156.8 29.7999 156.4 29.9999 156.2 30.2999C156 30.6999 155.9 31.2999 155.9 32.0999V33.8999H156Z" fill="url(#paint2_linear)"/>
<path d="M173.5 46.4999C171.3 46.4999 169.6 45.8999 168.4 44.6999C167.2 43.4999 166.6 41.8999 166.6 39.6999V32.4999C166.6 30.3999 167.2 28.7999 168.4 27.5999C169.6 26.3999 171.3 25.7999 173.5 25.7999C175.7 25.7999 177.3 26.2999 178.5 27.2999C179.7 28.2999 180.2 29.7999 180.2 31.7999V33.8999H174.8V31.6999C174.8 30.8999 174.7 30.3999 174.5 30.0999C174.3 29.7999 174 29.6999 173.5 29.6999C173.1 29.6999 172.7 29.8999 172.5 30.1999C172.3 30.4999 172.2 31.0999 172.2 31.9999V40.2999C172.2 41.1999 172.3 41.7999 172.5 42.0999C172.7 42.3999 173 42.5999 173.5 42.5999C173.9 42.5999 174.3 42.4999 174.5 42.1999C174.7 41.8999 174.8 41.3999 174.8 40.6999V38.0999H180.2V40.4999C180.2 42.4999 179.6 43.9999 178.4 44.9999C177.3 45.8999 175.6 46.4999 173.5 46.4999Z" fill="url(#paint3_linear)"/>
<path d="M183.1 46.0999V18.2H188.7V33.7L193.5 26.2H199.8L194.6 34.3999L199.8 46.2H193.7L190.2 36.8L188.7 38.7V46.3H183.1V46.0999Z" fill="url(#paint4_linear)"/>
<path d="M201.7 46.0999V26.2H207.2V27.8C208.5 26.5 210.1 25.8 211.9 25.8C212.7 25.8 213.4 25.9999 214 26.3999C214.6 26.7999 215 27.3999 215.3 28.0999C216.7 26.4999 218.4 25.7 220.4 25.7C221.6 25.7 222.5 26.1 223.2 27C223.9 27.9 224.2 29 224.2 30.5V46H218.7V31.0999C218.7 30.5999 218.6 30.1999 218.4 29.8999C218.2 29.6999 217.9 29.4999 217.5 29.5999C216.9 29.5999 216.3 29.9 215.7 30.3V30.5V46H210.2V31.0999C210.2 30.5999 210.1 30.1999 209.9 29.8999C209.7 29.5999 209.4 29.4999 209 29.5999C208.4 29.5999 207.8 29.8999 207.1 30.3999V46.0999H201.7V46.0999Z" fill="#14405B"/>
<path d="M231.7 46.5C230.3 46.5 229.2 46 228.3 45C227.5 44 227 42.9 227 41.6C227 40.9 227.1 40.3 227.2 39.8C227.4 39.2 227.6 38.7 227.8 38.3C228 37.9 228.4 37.5 228.8 37.1C229.2 36.7 229.6 36.4 229.9 36.2C230.2 36 230.7 35.7 231.2 35.4C231.8 35.1 232.2 34.9 232.5 34.8C232.8 34.7 233.3 34.5 233.9 34.3C234.5 34.1 234.9 33.9 235.1 33.8V31.8C235.1 31.2 235 30.8 234.8 30.5C234.6 30.2 234.3 30 233.9 30C233.1 30 232.7 30.5 232.7 31.6L232.6 33.1L227.4 32.9C227.4 32.9 227.4 32.8 227.4 32.6C227.4 32.4 227.4 32.3 227.4 32.3C227.6 30.1 228.2 28.5 229.4 27.5C230.6 26.5 232.3 26 234.5 26C236.5 26 238 26.5 239 27.6C240 28.7 240.5 30.1 240.5 32V41.3C240.5 42.6 240.6 44.2 240.9 46.3H235.9C235.6 44.7 235.5 43.7 235.4 43.5C235.1 44.4 234.7 45.2 234 45.8C233.5 46.2 232.7 46.5 231.7 46.5ZM233.7 42.6C234 42.6 234.2 42.5 234.5 42.3C234.8 42.1 235 41.9 235.2 41.6V36.2C234.3 36.6 233.6 37.3 233 38.1C232.4 38.9 232.1 39.7 232.1 40.5C232.1 41.1 232.2 41.7 232.5 42C232.9 42.4 233.3 42.6 233.7 42.6Z" fill="#14405B"/>
<path d="M244.1 46.0999V26.1999H249.7V29.4999C250.9 27.0999 252.3 25.8999 253.7 25.8999C253.9 25.8999 254.2 25.8999 254.5 25.9999V30.9999C254.2 30.8999 253.9 30.8999 253.6 30.8999C252.1 30.9999 250.8 31.7999 249.7 33.2999V46.0999H244.1V46.0999Z" fill="#14405B"/>
<path d="M256.8 46.0999V18.2H262.4V33.7L267.2 26.2H273.5L268.3 34.3999L273.5 46.2H267.4L263.9 36.8L262.4 38.7V46.3H256.8V46.0999Z" fill="#14405B"/>
<path d="M88.3 37.8H80.1C79.4 37.8 78.9 37.3 78.9 36.6V34V28.3C78.9 26.2 78 24.3 76.7 22.9C75.3 21.5 73.4 20.7 71.3 20.7C69.2 20.7 67.3 21.6 65.9 22.9C64.5 24.3 63.7 26.2 63.7 28.3V35.7V53.4V53.5C63.7 54.1 63.5 54.7 63.1 55.1C62.7 55.5 62.1 55.7 61.5 55.7C60.9 55.7 60.3 55.5 59.9 55.1C59.5 54.7 59.2 54.1 59.2 53.5V51.7V24.7V23C59.2 20.9 58.3 19 57 17.6C55.6 16.2 53.7 15.4 51.6 15.4C49.5 15.4 47.6 16.3 46.2 17.6C44.8 19 44 20.9 44 23V28.5V36.7V49C44 49.6 43.8 50.2 43.3 50.6C42.9 51 42.3 51.2 41.7 51.2C41.1 51.2 40.5 51 40.1 50.6C39.7 50.2 39.4 49.6 39.4 49V46.1V35.4C39.4 33.3 38.5 31.4 37.2 30C35.8 28.6 33.9 27.8 31.8 27.8C29.7 27.8 27.8 28.6 26.4 30C25 31.4 24.2 33.3 24.2 35.4V36.6C24.2 37.3 23.7 37.8 23 37.8H15.8C14.3 37.8 13.1 39 13.1 40.5C13.1 42 14.3 43.2 15.8 43.2H24.2C27.2 43.2 29.6 40.8 29.6 37.8V35.4C29.6 34.8 29.8 34.2 30.3 33.8C30.7 33.4 31.3 33.1 31.9 33.1C32.5 33.1 33.1 33.3 33.5 33.8C33.9 34.2 34.2 34.8 34.2 35.4V46.1V49C34.2 51.1 35.1 53 36.4 54.4C37.8 55.8 39.7 56.6 41.8 56.6C43.9 56.6 45.8 55.8 47.2 54.4C48.6 53 49.4 51.1 49.4 49V36.7V28.5V23C49.4 22.4 49.6 21.8 50.1 21.4C50.5 21 51.1 20.7 51.7 20.7C52.3 20.7 52.9 21 53.3 21.4C53.7 21.8 54 22.4 54 23V24.8V51.8V53.6C54 55.7 54.9 57.6 56.2 59C57.6 60.4 59.5 61.2 61.6 61.2C63.7 61.2 65.6 60.4 67 59C68.4 57.6 69.2 55.7 69.2 53.6V53.5V35.8V28.4C69.2 27.8 69.5 27.2 69.9 26.8C70.3 26.4 70.9 26.1 71.5 26.1C72.1 26.1 72.7 26.4 73.1 26.8C73.5 27.2 73.7 27.8 73.7 28.4V36.8V37.9C73.7 40.9 76.1 43.3 79.1 43.3H88.5C90 43.3 91.2 42.1 91.2 40.6C91 39 89.8 37.8 88.3 37.8Z" fill="url(#paint5_linear)"/>
<path d="M71.3 17.1001C74.2823 17.1001 76.7 14.6824 76.7 11.7C76.7 8.71771 74.2823 6.30005 71.3 6.30005C68.3177 6.30005 65.9 8.71771 65.9 11.7C65.9 14.6824 68.3177 17.1001 71.3 17.1001Z" fill="url(#paint6_linear)"/>
<path d="M51.3 11.7C54.2823 11.7 56.7 9.28236 56.7 6.30003C56.7 3.31769 54.2823 0.900024 51.3 0.900024C48.3177 0.900024 45.9 3.31769 45.9 6.30003C45.9 9.28236 48.3177 11.7 51.3 11.7Z" fill="url(#paint7_linear)"/>
<path d="M31.9 24.2C34.8823 24.2 37.3 21.7824 37.3 18.8C37.3 15.8177 34.8823 13.4 31.9 13.4C28.9177 13.4 26.5 15.8177 26.5 18.8C26.5 21.7824 28.9177 24.2 31.9 24.2Z" fill="url(#paint8_linear)"/>
<path d="M6.4 30.2C6.8 29.1 7.1 27.7 7.1 26.1V19.9C7.1 18.6 7.3 17.6 7.8 17C8.3 16.4 9.2 16.1 10.6 16.1H16.2V10.5H10.8C8.8 10.5 7.2 10.7 5.9 11.1C4.6 11.5 3.5 12 2.7 12.7C1.9 13.4 1.3 14.3 1 15.3C0.7 16.3 0.5 17.5 0.5 18.9V47.4C0.5 48.7 0.7 49.9 1 51C1.3 52 1.9 52.9 2.7 53.6C3.5 54.3 4.6 54.9 5.9 55.2C7.2 55.6 8.9 55.8 10.8 55.8H16.2V50.2H10.6C9.2 50.2 8.3 49.9 7.8 49.3C7.3 48.7 7.1 47.7 7.1 46.4V40.2C7.1 38.6 6.9 37.2 6.4 36.1C6 35 5.1 34 3.8 33.2C5.1 32.3 6 31.3 6.4 30.2Z" fill="#14405B"/>
<path d="M103.7 18.9C103.7 17.6 103.5 16.4 103.2 15.3C102.9 14.3 102.3 13.4 101.5 12.7C100.7 12 99.6 11.4 98.3 11.1C97 10.7 95.3 10.5 93.4 10.5H92.5H88V16.1H92.5H93.7C95.1 16.1 96 16.4 96.5 17C97 17.6 97.2 18.6 97.2 19.9V26.1C97.2 27.7 97.4 29.1 97.9 30.2C98.3 31.3 99.2 32.3 100.5 33.1C99.2 33.9 98.3 34.9 97.9 36C97.5 37.1 97.2 38.5 97.2 40.1V46.3C97.2 47.6 97 48.6 96.5 49.2C96 49.8 95.1 50.1 93.7 50.1H88V55.7C88 59.3 87.1 61.5 84.4 62.9C84.4 62.9 92.3 61.3 93.8 55.7C95.6 55.7 97.1 55.5 98.3 55.1C99.6 54.7 100.7 54.2 101.5 53.5C102.3 52.8 102.9 51.9 103.2 50.9C103.5 49.9 103.7 48.7 103.7 47.3V18.9Z" fill="#14405B"/>
<defs>
<linearGradient id="paint0_linear" x1="108.196" y1="32.1728" x2="194.077" y2="32.1728" gradientUnits="userSpaceOnUse">
<stop stop-color="#1B75BB"/>
<stop offset="1" stop-color="#00ADEE"/>
</linearGradient>
<linearGradient id="paint1_linear" x1="108.196" y1="32.1723" x2="194.077" y2="32.1723" gradientUnits="userSpaceOnUse">
<stop stop-color="#1B75BB"/>
<stop offset="1" stop-color="#00ADEE"/>
</linearGradient>
<linearGradient id="paint2_linear" x1="108.196" y1="36.1659" x2="194.077" y2="36.1659" gradientUnits="userSpaceOnUse">
<stop stop-color="#1B75BB"/>
<stop offset="1" stop-color="#00ADEE"/>
</linearGradient>
<linearGradient id="paint3_linear" x1="108.196" y1="36.1659" x2="194.077" y2="36.1659" gradientUnits="userSpaceOnUse">
<stop stop-color="#1B75BB"/>
<stop offset="1" stop-color="#00ADEE"/>
</linearGradient>
<linearGradient id="paint4_linear" x1="108.196" y1="32.164" x2="194.077" y2="32.164" gradientUnits="userSpaceOnUse">
<stop stop-color="#1B75BB"/>
<stop offset="1" stop-color="#00ADEE"/>
</linearGradient>
<linearGradient id="paint5_linear" x1="13.2094" y1="38.2571" x2="91.0094" y2="38.2571" gradientUnits="userSpaceOnUse">
<stop stop-color="#1B75BB"/>
<stop offset="1" stop-color="#00ADEE"/>
</linearGradient>
<linearGradient id="paint6_linear" x1="5.19208" y1="11.6842" x2="101.157" y2="11.6842" gradientUnits="userSpaceOnUse">
<stop stop-color="#1B75BB"/>
<stop offset="1" stop-color="#00ADEE"/>
</linearGradient>
<linearGradient id="paint7_linear" x1="5.19221" y1="6.33062" x2="101.157" y2="6.33062" gradientUnits="userSpaceOnUse">
<stop stop-color="#1B75BB"/>
<stop offset="1" stop-color="#00ADEE"/>
</linearGradient>
<linearGradient id="paint8_linear" x1="5.19219" y1="18.7527" x2="101.157" y2="18.7527" gradientUnits="userSpaceOnUse">
<stop stop-color="#1B75BB"/>
<stop offset="1" stop-color="#00ADEE"/>
</linearGradient>
</defs>
</svg>
