<svg width="193" height="98" viewBox="0 0 193 98" fill="none" xmlns="http://www.w3.org/2000/svg">
<circle cx="93" cy="49" r="49" fill="white"/>
<rect x="78.2161" y="41.3831" width="26.4151" height="17.6101" rx="5.50315" transform="rotate(-6.41945 78.2161 41.3831)" stroke="#1A79BF" stroke-width="2.20126"/>
<path d="M105.737 60.2633L106.005 53.665L99.2729 56.6965L105.737 60.2633Z" fill="#1A79BF"/>
<line x1="81.9892" y1="45.3888" x2="99.4889" y2="43.4199" stroke="#1A79BF" stroke-width="2.20126"/>
<line x1="82.4817" y1="49.7638" x2="97.7939" y2="48.041" stroke="#1A79BF" stroke-width="2.20126"/>
<line x1="82.9739" y1="54.1387" x2="100.474" y2="52.1698" stroke="#1A79BF" stroke-width="2.20126"/>
<rect x="-1.03775" y="0.827848" width="22.5284" height="15.019" rx="4.69342" transform="matrix(-0.99373 -0.111806 -0.111806 0.99373 24.4638 17.0887)" stroke="white" stroke-width="1.87737"/>
<path d="M1.93037 34.1296L1.70211 28.5021L7.44372 31.0876L1.93037 34.1296Z" fill="white"/>
<line y1="-0.938685" x2="15.019" y2="-0.938685" transform="matrix(-0.99373 -0.111806 -0.111806 0.99373 22.0793 22.3765)" stroke="white" stroke-width="1.87737"/>
<line y1="-0.938685" x2="13.1416" y2="-0.938685" transform="matrix(-0.99373 -0.111806 -0.111806 0.99373 21.6595 26.1077)" stroke="white" stroke-width="1.87737"/>
<line y1="-0.938685" x2="15.019" y2="-0.938685" transform="matrix(-0.99373 -0.111806 -0.111806 0.99373 21.2399 29.8389)" stroke="white" stroke-width="1.87737"/>
<rect x="14.7485" y="62.5876" width="14.6375" height="9.75831" rx="3.04947" transform="rotate(-15.2052 14.7485 62.5876)" stroke="white" stroke-width="1.21979"/>
<path d="M31.4181 70.5976L31.0062 66.9615L27.5761 69.1914L31.4181 70.5976Z" fill="white"/>
<line x1="17.154" y1="64.4619" x2="26.5707" y2="61.9025" stroke="white" stroke-width="1.21979"/>
<line x1="17.7939" y1="66.816" x2="26.0335" y2="64.5766" stroke="white" stroke-width="1.21979"/>
<line x1="18.4337" y1="69.1702" x2="27.8504" y2="66.6108" stroke="white" stroke-width="1.21979"/>
<rect x="166.864" y="22.961" width="18.7561" height="12.504" rx="3.90751" transform="rotate(-6.41945 166.864 22.961)" stroke="white" stroke-width="1.56301"/>
<path d="M186.406 36.367L186.596 31.6818L181.816 33.8343L186.406 36.367Z" fill="white"/>
<line x1="169.543" y1="25.8053" x2="181.969" y2="24.4073" stroke="white" stroke-width="1.56301"/>
<line x1="169.893" y1="28.9117" x2="180.765" y2="27.6884" stroke="white" stroke-width="1.56301"/>
<line x1="170.242" y1="32.0181" x2="182.668" y2="30.6201" stroke="white" stroke-width="1.56301"/>
<rect x="-1.09255" y="0.609552" width="21.2316" height="14.1544" rx="4.42325" transform="matrix(-0.962018 -0.272986 -0.272986 0.962018 190.176 61.5941)" stroke="white" stroke-width="1.7693"/>
<path d="M166.754 73.8279L167.41 68.5607L172.349 71.8503L166.754 73.8279Z" fill="white"/>
<line y1="-0.884649" x2="14.1544" y2="-0.884649" transform="matrix(-0.962018 -0.272986 -0.272986 0.962018 187.3 66.0095)" stroke="white" stroke-width="1.7693"/>
<line y1="-0.884649" x2="12.3851" y2="-0.884649" transform="matrix(-0.962018 -0.272986 -0.272986 0.962018 186.334 69.4137)" stroke="white" stroke-width="1.7693"/>
<line y1="-0.884649" x2="14.1544" y2="-0.884649" transform="matrix(-0.962018 -0.272986 -0.272986 0.962018 185.368 72.818)" stroke="white" stroke-width="1.7693"/>
</svg>
