<svg width="195" height="98" viewBox="0 0 195 98" fill="none" xmlns="http://www.w3.org/2000/svg">
<circle cx="94" cy="49" r="49" fill="white"/>
<rect width="37.1549" height="37.1549" transform="translate(75 34)" fill="url(#paint0_linear)"/>
<path d="M107.263 41.1368C106.472 40.3457 105.533 39.7182 104.5 39.29C103.467 38.8619 102.359 38.6415 101.241 38.6415C100.122 38.6415 99.0147 38.8619 97.9814 39.29C96.9481 39.7182 96.0093 40.3457 95.2186 41.1368L93.5776 42.7778L91.9366 41.1368C90.3394 39.5396 88.1731 38.6423 85.9144 38.6423C83.6556 38.6423 81.4894 39.5396 79.8922 41.1368C78.295 42.734 77.3977 44.9002 77.3977 47.159C77.3977 49.4178 78.295 51.584 79.8922 53.1812L81.5332 54.8222L93.5776 66.8666L105.622 54.8222L107.263 53.1812C108.054 52.3905 108.682 51.4517 109.11 50.4183C109.538 49.385 109.758 48.2775 109.758 47.159C109.758 46.0405 109.538 44.933 109.11 43.8997C108.682 42.8664 108.054 41.9275 107.263 41.1368Z" fill="#2589C7"/>
<path d="M18.18 19.0466C17.5314 18.7627 16.8332 18.6094 16.1253 18.5955C15.4174 18.5815 14.7138 18.7071 14.0545 18.9652C13.3951 19.2233 12.7931 19.6087 12.2828 20.0995C11.7725 20.5903 11.3639 21.1768 11.0804 21.8256L10.4917 23.1715L9.14576 22.5828C7.83577 22.0099 6.35184 21.9808 5.02039 22.5019C3.68895 23.0231 2.61907 24.0518 2.04612 25.3618C1.47316 26.6718 1.44406 28.1557 1.96522 29.4872C2.48638 30.8186 3.5151 31.8885 4.82509 32.4614L6.17102 33.0501L16.0496 37.3708L20.3703 27.4922L20.959 26.1462C21.2428 25.4976 21.3961 24.7994 21.4101 24.0916C21.4241 23.3837 21.2984 22.68 21.0404 22.0207C20.7823 21.3614 20.3969 20.7594 19.9061 20.2491C19.4153 19.7388 18.8288 19.3302 18.18 19.0466Z" fill="white"/>
<path d="M176.173 7.0466C176.821 6.76273 177.519 6.60943 178.227 6.59547C178.935 6.5815 179.639 6.70714 180.298 6.96521C180.958 7.22328 181.56 7.60872 182.07 8.09951C182.58 8.5903 182.989 9.17682 183.272 9.82557L183.861 11.1715L185.207 10.5828C186.517 10.0099 188.001 9.98076 189.332 10.5019C190.664 11.0231 191.734 12.0518 192.307 13.3618C192.879 14.6718 192.909 16.1557 192.387 17.4872C191.866 18.8186 190.838 19.8885 189.528 20.4614L188.182 21.0501L178.303 25.3708L173.982 15.4922L173.394 14.1462C173.11 13.4976 172.957 12.7994 172.943 12.0916C172.929 11.3837 173.054 10.68 173.312 10.0207C173.57 9.36138 173.956 8.75938 174.447 8.24908C174.937 7.73877 175.524 7.33017 176.173 7.0466Z" fill="white"/>
<path d="M176.946 51.7623C177.447 51.7622 177.944 51.8608 178.407 52.0526C178.87 52.2444 179.291 52.5256 179.645 52.8801C180 53.2346 180.281 53.6555 180.473 54.1187C180.665 54.5819 180.763 55.0784 180.763 55.5797L180.763 56.62L181.804 56.62C182.816 56.62 183.787 57.0222 184.503 57.7381C185.219 58.454 185.621 59.425 185.621 60.4374C185.621 61.4499 185.219 62.4209 184.503 63.1368C183.787 63.8527 182.816 64.2549 181.804 64.2549L180.763 64.2549L173.128 64.2549L173.128 56.62L173.128 55.5797C173.128 55.0784 173.227 54.5819 173.419 54.1187C173.611 53.6555 173.892 53.2346 174.246 52.8801C174.601 52.5256 175.022 52.2444 175.485 52.0526C175.948 51.8608 176.445 51.7622 176.946 51.7623Z" fill="white"/>
<path d="M32.2567 72.5818C31.7553 72.5816 31.2588 72.6803 30.7956 72.8721C30.3324 73.0639 29.9116 73.3451 29.557 73.6996C29.2025 74.0541 28.9213 74.475 28.7295 74.9382C28.5377 75.4014 28.4391 75.8979 28.4392 76.3992L28.4392 77.4395L27.399 77.4395C26.3865 77.4395 25.4155 77.8417 24.6996 78.5576C23.9837 79.2735 23.5815 80.2445 23.5815 81.2569C23.5815 82.2694 23.9837 83.2404 24.6996 83.9563C25.4155 84.6722 26.3865 85.0744 27.399 85.0744L28.4392 85.0744L36.0741 85.0744L36.0741 77.4395L36.0741 76.3992C36.0742 75.8979 35.9756 75.4014 35.7838 74.9382C35.592 74.475 35.3108 74.0541 34.9563 73.6996C34.6018 73.3451 34.1809 73.0639 33.7177 72.8721C33.2545 72.6803 32.758 72.5816 32.2567 72.5818Z" fill="white"/>
<defs>
<linearGradient id="paint0_linear" x1="18.5775" y1="0" x2="18.5775" y2="37.1549" gradientUnits="userSpaceOnUse">
<stop stop-color="white"/>
<stop offset="1" stop-color="white" stop-opacity="0"/>
</linearGradient>
</defs>
</svg>
