<svg width="25" height="25" viewBox="0 0 25 25" fill="none" xmlns="http://www.w3.org/2000/svg">
<path d="M12.5 24C18.8513 24 24 18.8513 24 12.5C24 6.14873 18.8513 1 12.5 1C6.14873 1 1 6.14873 1 12.5C1 18.8513 6.14873 24 12.5 24Z" stroke="#AFB6BF" stroke-width="2"/>
<path d="M12.5 4.21045C7.80375 4.21045 4 8.01632 4 12.7104C4 16.4667 6.43525 19.6521 9.81187 20.7748C10.2369 20.8549 10.3927 20.5921 10.3927 20.3661C10.3927 20.1642 10.3856 19.6294 10.3821 18.9211C8.01767 19.4339 7.519 17.7807 7.519 17.7807C7.13225 16.7997 6.57337 16.5376 6.57337 16.5376C5.80342 16.0106 6.63287 16.0212 6.63287 16.0212C7.48642 16.0807 7.93479 16.8967 7.93479 16.8967C8.69271 18.1965 9.9245 17.8211 10.4104 17.6036C10.4869 17.0539 10.7058 16.6792 10.9488 16.4667C9.06104 16.2542 7.077 15.5232 7.077 12.2663C7.077 11.3384 7.40637 10.5805 7.95179 9.98549C7.85617 9.77087 7.56929 8.9067 8.02617 7.73582C8.02617 7.73582 8.73804 7.50774 10.3637 8.60707C11.0437 8.41795 11.7662 8.32445 12.4887 8.3202C13.2112 8.32445 13.9337 8.41795 14.6137 8.60707C16.2287 7.50774 16.9405 7.73582 16.9405 7.73582C17.3974 8.9067 17.1105 9.77087 17.0255 9.98549C17.5674 10.5805 17.8968 11.3384 17.8968 12.2663C17.8968 15.5317 15.9099 16.2507 14.0187 16.4597C14.3162 16.7147 14.5924 17.236 14.5924 18.0322C14.5924 19.1697 14.5818 20.0835 14.5818 20.3597C14.5818 20.5829 14.7305 20.8485 15.1662 20.7635C18.5669 19.6486 21 16.4611 21 12.7104C21 8.01632 17.1941 4.21045 12.5 4.21045" fill="#AFB6BF"/>
</svg>
